:SAMPLES-PER-SECOND 30
:FULLY-SPECIFIED
:DEGREES
93
root  19.9964 35.9974 -7.11874 13.7049 -82.8923 4.46795
RightUpLeg  -54.5853 -17.0226 -4.20469
RightLeg  39.2913 -0.65504 -0.860851
RightFoot  -9.89486 -0.202874 10.714
RightToes  0.00048216 0.542163 -0.142577
Spine  59.9925 -1.02366 1.54927
Spine1  -7.91237 -0.916715 1.06143
HEad  -55.3562 0.157877 0.538895
LeftShoulder1  10.6434 -18.3444 -42.2884
LeftArm  -13.2741 -7.18362 -31.3203
LeftForeArm  142.509 -82.0719 -92.6135
LeftHand  -0.25398 0.0180481 5.50724
RightShoulder  7.78697 13.2307 40.3634
RightArm  -10.518 27.0117 15.4513
RightForeArm  70.7452 77.5133 45.0221
RightHand  -0.02426 -5.24345 6.94751
LeftUpLeg  -56.7853 5.50204 0.318098
LeftLeg  37.107 0.869701 1.08035
LeftFoot  -1.64154 0.279296 -3.16864
LeftToes  1.06241e-005 4.65855e-005 -8.18508e-006
94
root  20.0372 35.5922 -7.07887 10.6161 -83.5672 6.09197
RightUpLeg  -54.8014 -17.7214 -4.48842
RightLeg  41.5309 0.382763 0.0635246
RightFoot  -8.669 -0.334543 11.8431
RightToes  0.00048216 0.542163 -0.142577
Spine  61.3225 -0.969252 1.67783
Spine1  -6.75417 -0.675172 0.759651
HEad  -53.9671 -0.365782 0.0623614
LeftShoulder1  10.6898 -18.0316 -43.147
LeftArm  -15.603 -4.01891 -30.3084
LeftForeArm  165.313 -81.1174 -116.251
LeftHand  -0.25398 0.0180481 5.50724
RightShoulder  7.68056 13.0104 40.343
RightArm  -10.3513 23.5827 16.7743
RightForeArm  88.2118 79.7996 59.0853
RightHand  -0.0155305 -4.89407 6.02885
LeftUpLeg  -57.0111 5.54679 0.259643
LeftLeg  40.1229 1.16965 1.44179
LeftFoot  -1.57324 0.149365 -1.63081
LeftToes  1.06241e-005 4.65855e-005 -8.18508e-006
95
root  20.0683 35.453 -7.04145 12.1976 -83.9965 3.27398
RightUpLeg  -54.0688 -17.6737 -4.4913
RightLeg  42.4458 0.698788 0.383749
RightFoot  -9.27183 -0.28657 12.3067
RightToes  0.00048216 0.542163 -0.142577
Spine  62.5148 -1.16088 2.47488
Spine1  -5.93088 -0.27571 0.33119
HEad  -53.0031 -0.832045 -0.534225
LeftShoulder1  10.75 -17.9036 -43.6819
LeftArm  -17.492 -2.04715 -29.1645
LeftForeArm  171.516 -80.4327 -123.273
LeftHand  -0.25398 0.0180481 5.50724
RightShoulder  7.59556 12.723 40.6279
RightArm  -11.3452 20.5821 17.6733
RightForeArm  103.56 80.8921 75.2225
RightHand  -0.028518 -5.07906 4.34407
LeftUpLeg  -56.4926 5.61735 0.845343
LeftLeg  41.6871 1.49499 1.81937
LeftFoot  -2.45681 0.147367 -1.71569
LeftToes  1.06241e-005 4.65855e-005 -8.18508e-006
96
root  20.0597 35.4446 -6.99117 14.8909 -84.4396 0.308911
RightUpLeg  -53.8023 -17.0428 -4.47887
RightLeg  42.5669 0.703466 0.391713
RightFoot  -9.9337 -0.217916 12.1843
RightToes  0.00048216 0.542163 -0.142577
Spine  62.4145 -1.22547 2.95726
Spine1  -5.11124 -0.0447397 0.32588
HEad  -52.2975 -0.792098 -1.19394
LeftShoulder1  10.7622 -17.7377 -44.0965
LeftArm  -19.1301 -0.497734 -27.9678
LeftForeArm  170.56 -80.3065 -123.835
LeftHand  -0.25398 0.0180481 5.50724
RightShoulder  7.56576 12.5296 40.9849
RightArm  -12.318 18.6046 18.5659
RightForeArm  117.203 81.1682 89.4788
RightHand  -0.0387839 -5.28387 3.13688
LeftUpLeg  -56.3441 5.59629 1.36638
LeftLeg  42.2486 1.83504 2.18144
LeftFoot  -3.18338 0.168238 -2.08206
LeftToes  1.06241e-005 4.65855e-005 -8.18508e-006
97
root  20.011 35.5064 -6.94098 15.2139 -84.9297 0.0360578
RightUpLeg  -53.636 -16.4428 -4.66182
RightLeg  42.1921 0.692081 0.374196
RightFoot  -9.75441 -0.23338 12.0058
RightToes  0.00048216 0.542163 -0.142577
Spine  61.5935 -1.09537 2.73024
Spine1  -4.3803 -0.132845 0.76556
HEad  -51.6948 -0.161234 -1.7503
LeftShoulder1  10.6699 -17.4269 -44.384
LeftArm  -20.505 0.96341 -26.9095
LeftForeArm  163.137 -80.6899 -118.872
LeftHand  -0.25398 0.0180481 5.50724
RightShoulder  7.52118 12.4852 40.8463
RightArm  -12.6211 17.1813 20.3261
RightForeArm  124.574 81.0992 96.9781
RightHand  -0.0349099 -4.83833 0.803294
LeftUpLeg  -56.0925 5.40536 1.56417
LeftLeg  42.0567 2.27095 2.58865
LeftFoot  -3.07677 0.15338 -1.85388
LeftToes  1.06241e-005 4.65855e-005 -8.18508e-006
98
root  19.9301 35.6335 -6.90107 10.8719 -85.4519 4.50354
RightUpLeg  -53.3514 -16.264 -5.04128
RightLeg  41.5194 0.826522 0.4901
RightFoot  -9.61778 -0.24678 12.0081
RightToes  0.00048216 0.542163 -0.142577
Spine  60.2665 -0.779306 2.05954
Spine1  -3.74899 -0.364789 1.34051
HEad  -51.2002 0.530874 -2.07901
LeftShoulder1  10.5912 -17.1511 -44.6595
LeftArm  -21.1201 1.92095 -26.2018
LeftForeArm  147.849 -81.4358 -105.542
LeftHand  -0.25398 0.0180481 5.50724
RightShoulder  7.47214 12.4874 40.551
RightArm  -12.4788 15.6706 22.3943
RightForeArm  123.269 81.0446 96.905
RightHand  -0.0543142 -4.06885 -2.3421
LeftUpLeg  -55.4922 5.17139 1.37895
LeftLeg  41.2599 2.8333 3.05116
LeftFoot  -2.74502 0.158149 -1.88061
LeftToes  1.06241e-005 4.65855e-005 -8.18508e-006
99
root  19.8182 35.8631 -6.85734 7.66171 -86.0242 7.67213
RightUpLeg  -52.4494 -16.1576 -5.18341
RightLeg  40.3339 0.947912 0.576691
RightFoot  -10.4069 -0.169095 11.9713
RightToes  0.00048216 0.542163 -0.142577
Spine  58.7668 -0.465913 1.6332
Spine1  -3.31319 -0.390923 1.5839
HEad  -50.9523 0.862404 -2.44177
LeftShoulder1  10.639 -17.0696 -45.0566
LeftArm  -20.8612 2.44125 -25.9096
LeftForeArm  125.878 -81.6744 -84.3858
LeftHand  -0.25398 0.0180481 5.50724
RightShoulder  7.48927 12.4339 40.8008
RightArm  -12.0051 14.1886 23.7618
RightForeArm  114.059 81.0257 89.4579
RightHand  -0.0959985 -3.47424 -4.51093
LeftUpLeg  -54.3512 5.2059 1.37706
LeftLeg  40.1496 3.32795 3.39059
LeftFoot  -3.30634 0.225858 -2.95615
LeftToes  1.06241e-005 4.65855e-005 -8.18508e-006
100
root  19.6695 36.2151 -6.80274 13.2591 -86.6553 1.48043
RightUpLeg  -50.3511 -15.7846 -4.83237
RightLeg  38.4124 0.855609 0.453331
RightFoot  -11.8969 -0.0239607 11.7677
RightToes  0.00048216 0.542163 -0.142577
Spine  57.6976 -0.416441 1.6679
Spine1  -3.14406 -0.21212 1.29799
HEad  -51.0419 1.02272 -3.16376
LeftShoulder1  10.7191 -17.0862 -45.372
LeftArm  -20.2394 3.32875 -26.0244
LeftForeArm  105.726 -80.8531 -65.1291
LeftHand  -0.25398 0.0180481 5.50724
RightShoulder  7.56174 12.3652 41.4213
RightArm  -10.8778 13.1072 24.7498
RightForeArm  98.3776 80.6497 74.4291
RightHand  -0.139783 -2.90636 -5.66801
LeftUpLeg  -52.3668 5.57189 2.01824
LeftLeg  38.951 3.59468 3.49155
LeftFoot  -5.11038 0.272858 -4.46124
LeftToes  1.06241e-005 4.65855e-005 -8.18508e-006
101
root  19.4745 36.6328 -6.75377 22.2645 -87.1857 -8.35318
RightUpLeg  -47.6692 -15.5241 -4.45118
RightLeg  36.1416 0.694709 0.280813
RightFoot  -13.5473 0.13145 11.576
RightToes  0.00048216 0.542163 -0.142577
Spine  56.6059 -0.522638 1.53017
Spine1  -2.99034 -0.220959 0.91033
HEad  -51.2946 1.30688 -4.21701
LeftShoulder1  10.7152 -17.0457 -45.4483
LeftArm  -19.5797 4.84005 -26.4121
LeftForeArm  91.6732 -79.5114 -52.624
LeftHand  -0.25398 0.0180481 5.50724
RightShoulder  7.62749 12.3723 41.789
RightArm  -9.10575 12.3144 26.1594
RightForeArm  80.4936 79.1836 55.8692
RightHand  -0.201077 -2.14401 -6.72422
LeftUpLeg  -49.883 5.95456 2.6919
LeftLeg  37.5595 3.8002 3.50496
LeftFoot  -7.43001 0.231478 -5.44459
LeftToes  1.06241e-005 4.65855e-005 -8.18508e-006
102
root  19.235 37.0661 -6.72315 28.6226 -87.5867 -15.7099
RightUpLeg  -44.6965 -15.7033 -4.28982
RightLeg  33.8394 0.677834 0.234822
RightFoot  -15.1347 0.277546 11.4582
RightToes  0.00048216 0.542163 -0.142577
Spine  55.2877 -0.61312 1.09015
Spine1  -2.83337 -0.452191 0.738709
HEad  -51.3287 1.71477 -5.48365
LeftShoulder1  10.7024 -16.9448 -45.6253
LeftArm  -18.6954 6.3429 -26.7562
LeftForeArm  80.5286 -77.6591 -42.5484
LeftHand  -0.25398 0.0180481 5.50724
RightShoulder  7.67858 12.4255 41.9387
RightArm  -7.1495 11.3935 27.7836
RightForeArm  66.6739 76.4924 40.8197
RightHand  -0.250353 -1.60357 -7.39988
LeftUpLeg  -47.0142 6.19862 3.10036
LeftLeg  35.8759 4.13194 3.57203
LeftFoot  -9.4223 0.156009 -5.92334
LeftToes  1.06241e-005 4.65855e-005 -8.18508e-006
103
root  18.9527 37.4828 -6.71008 37.4662 -87.9654 -25.8097
RightUpLeg  -41.4319 -16.0624 -4.17489
RightLeg  31.558 0.776171 0.269822
RightFoot  -16.3958 0.386173 11.2466
RightToes  0.00048216 0.542163 -0.142577
Spine  53.8629 -0.600309 0.624822
Spine1  -3.0235 -0.620415 0.658158
HEad  -50.9126 2.31592 -7.00977
LeftShoulder1  10.7729 -16.8405 -46.1806
LeftArm  -17.5357 7.41477 -26.8458
LeftForeArm  70.4598 -74.6373 -32.5914
LeftHand  -0.25398 0.0180481 5.50724
RightShoulder  7.72988 12.416 42.2662
RightArm  -5.2155 10.1198 29.0913
RightForeArm  58.0038 73.1219 30.9113
RightHand  -0.262809 -1.3775 -7.38627
LeftUpLeg  -43.8117 6.41536 3.55401
LeftLeg  34.0994 4.55516 3.67286
LeftFoot  -10.8796 0.0909298 -6.42217
LeftToes  1.06241e-005 4.65855e-005 -8.18508e-006
104
root  18.6231 37.8489 -6.72293 57.0801 -88.2513 -46.9814
RightUpLeg  -37.9762 -16.0857 -4.0398
RightLeg  29.4719 0.882597 0.303167
RightFoot  -16.8657 0.413219 10.9083
RightToes  0.00048216 0.542163 -0.142577
Spine  52.4912 -0.56607 0.228877
Spine1  -3.62569 -0.639279 0.315712
HEad  -50.0932 3.40081 -8.64488
LeftShoulder1  10.8276 -16.701 -46.7529
LeftArm  -16.4049 8.22319 -26.7568
LeftForeArm  61.8905 -70.2873 -24.3353
LeftHand  -0.25398 0.0180481 5.50724
RightShoulder  7.75684 12.3328 42.6617
RightArm  -3.19107 8.53391 30.3494
RightForeArm  52.1082 69.419 24.4026
RightHand  -0.324541 -0.631482 -7.80902
LeftUpLeg  -40.4064 6.67576 4.31514
LeftLeg  32.6062 4.91801 3.73987
LeftFoot  -11.9907 0.0317428 -7.05958
LeftToes  1.06241e-005 4.65855e-005 -8.18508e-006
105
root  18.2427 38.1155 -6.78937 82.7844 -88.4364 -74.4039
RightUpLeg  -34.7792 -15.41 -4.27869
RightLeg  28.1063 0.9888 0.341691
RightFoot  -16.4165 0.36288 10.6801
RightToes  0.00048216 0.542163 -0.142577
Spine  50.8426 -0.553361 -0.32167
Spine1  -4.08598 -0.684189 -0.427377
HEad  -48.7999 5.03178 -9.7837
LeftShoulder1  10.733 -16.4636 -46.8996
LeftArm  -15.2931 8.7768 -26.4449
LeftForeArm  55.0449 -65.2121 -18.6367
LeftHand  -0.25398 0.0180481 5.50724
RightShoulder  7.75213 12.2737 42.8043
RightArm  -1.25797 6.73092 32.0245
RightForeArm  47.0639 65.6208 20.04
RightHand  -0.513652 0.990693 -9.43797
LeftUpLeg  -37.0835 7.03947 5.01779
LeftLeg  31.6393 5.08498 3.72797
LeftFoot  -12.7178 -0.0146989 -7.57223
LeftToes  1.06241e-005 4.65855e-005 -8.18508e-006
